#tb 0: 1/44100
#media_type 0: audio
#codec_id 0: pcm_s16le
#sample_rate 0: 44100
#channel_layout_name 0: stereo
0,          0,          0,     4096,    16384, 0xfa52e42f
0,       4096,       4096,     4096,    16384, 0xb4f8f1bf
0,       8192,       8192,     4096,    16384, 0x6290e07d
0,      12288,      12288,     4096,    16384, 0x169eed77
0,      16384,      16384,     4096,    16384, 0x2f7bf78f
0,      20480,      20480,     4096,    16384, 0x439afecd
0,      24576,      24576,     4096,    16384, 0x76b4edd9
0,      28672,      28672,     4096,    16384, 0x2d76e8ed
0,      32768,      32768,     4096,    16384, 0xf45ee69f
0,      36864,      36864,     4096,    16384, 0xb4f8f1bf
0,      40960,      40960,     4096,    16384, 0x02bfe9fb
0,      45056,      45056,     4096,    16384, 0xbdaaca65
0,      49152,      49152,     4096,    16384, 0x94370aca
0,      53248,      53248,     4096,    16384, 0x3b7fff4d
0,      57344,      57344,     4096,    16384, 0x0df5b38f
0,      61440,      61440,     4096,    16384, 0x4d33a031
0,      65536,      65536,     4096,    16384, 0x0542e24f
0,      69632,      69632,     4096,    16384, 0xca4229fa
0,      73728,      73728,     4096,    16384, 0x1b4b060e
0,      77824,      77824,     4096,    16384, 0x8c12ddd9
0,      81920,      81920,     4096,    16384, 0xc53dd3ef
0,      86016,      86016,     4096,    16384, 0x3908099c
0,      90112,      90112,     4096,    16384, 0x89958059
0,      94208,      94208,     4096,    16384, 0x94a9c447
0,      98304,      98304,     4096,    16384, 0x27072002
0,     102400,     102400,     4096,    16384, 0x45d592e9
0,     106496,     106496,     4096,    16384, 0x4938c909
0,     110592,     110592,     4096,    16384, 0xbf1f2096
0,     114688,     114688,     4096,    16384, 0x262139ac
0,     118784,     118784,     4096,    16384, 0x701311b4
0,     122880,     122880,     4096,    16384, 0x67cb799c
0,     126976,     126976,     4096,    16384, 0xb4c37884
0,     131072,     131072,     4096,    16384, 0x8375b768
0,     135168,     135168,     4096,    16384, 0x55e5ec9c
0,     139264,     139264,     4096,    16384, 0x2a95165f
0,     143360,     143360,     4096,    16384, 0x89d8de32
0,     147456,     147456,     4096,    16384, 0x140c088b
0,     151552,     151552,     4096,    16384, 0x6098e3f4
0,     155648,     155648,     4096,    16384, 0x1ac2c4ae
0,     159744,     159744,     4096,    16384, 0x2ab1c66c
0,     163840,     163840,     4096,    16384, 0x8cf7e764
0,     167936,     167936,     4096,    16384, 0xd2a7df4c
0,     172032,     172032,     4096,    16384, 0x2c02ed24
0,     176128,     176128,     4096,    16384, 0x928ff951
0,     180224,     180224,     4096,    16384, 0x5221a9ec
0,     184320,     184320,     4096,    16384, 0x80b7a133
0,     188416,     188416,     4096,    16384, 0x20f6f7a2
0,     192512,     192512,     4096,    16384, 0xaf1ff306
0,     196608,     196608,     4096,    16384, 0xe146251b
0,     200704,     200704,     4096,    16384, 0x28189a73
0,     204800,     204800,     4096,    16384, 0x2730c72c
0,     208896,     208896,     4096,    16384, 0x799b07a1
0,     212992,     212992,     4096,    16384, 0x5221a9ec
0,     217088,     217088,     4096,    16384, 0x80b7a133
0,     221184,     221184,     4096,    16384, 0x20f6f7a2
0,     225280,     225280,     4096,    16384, 0xaf1ff306
0,     229376,     229376,     4096,    16384, 0xe146251b
0,     233472,     233472,     4096,    16384, 0x28189a73
0,     237568,     237568,     4096,    16384, 0x2730c72c
0,     241664,     241664,     4096,    16384, 0x799b07a1
0,     245760,     245760,     4096,    16384, 0x5221a9ec
0,     249856,     249856,     4096,    16384, 0x80b7a133
0,     253952,     253952,     4096,    16384, 0x20f6f7a2
0,     258048,     258048,     4096,    16384, 0xaf1ff306
0,     262144,     262144,     2456,     9824, 0x79f65b70
